<?xml version="1.0" encoding="UTF-8"?>
<svg width="81px" height="87px" viewBox="0 0 81 87" version="1.1" xmlns="http://www.w3.org/2000/svg" xmlns:xlink="http://www.w3.org/1999/xlink">
    <title>编组 5@1.5x</title>
    <defs>
        <linearGradient x1="100%" y1="26.8049423%" x2="38.3238555%" y2="70.5597356%" id="linearGradient-1">
            <stop stop-color="#EAE5C9" offset="0%"></stop>
            <stop stop-color="#6CC6CB" offset="100%"></stop>
        </linearGradient>
    </defs>
    <g id="页面-1" stroke="none" stroke-width="1" fill="none" fill-rule="evenodd">
        <g id="编组-5" fill="url(#linearGradient-1)">
            <path d="M79.4606764,-6.39488462e-14 L15.1963179,16.7015228 C6.57409499,19.4100494 2.93181696,25.93927 4.26948379,36.2891846 C6.27598403,51.8140564 24.466841,57.4950867 51.9637587,44.8042603 C51.9637587,44.8042603 16.028578,55.8768463 11.5768721,36.2891846 C11.5768721,36.2891846 64.2039931,22.5489502 64.2039931,22.5489502 C76.7444187,18.6506653 81.8299798,11.1343486 79.4606764,-6.39488462e-14 Z" id="路径-34"></path>
            <path d="M75.4606764,34.4154053 L11.1963179,51.1169281 C2.57409499,53.8254547 -1.06818304,60.3546753 0.269483789,70.7045898 C2.27598403,86.2294617 20.466841,91.9104919 47.9637587,79.2196655 C47.9637587,79.2196655 12.028578,90.2922516 7.57687209,70.7045898 C7.57687209,70.7045898 60.2039931,56.9643555 60.2039931,56.9643555 C72.7444187,53.0660706 77.8299798,45.5497538 75.4606764,34.4154053 Z" id="路径-34备份" transform="translate(38.012718, 60.305977) scale(-1, -1) translate(-38.012718, -60.305977) "></path>
        </g>
    </g>
</svg>